# xmcd
#
# Track frame offsets: 
#        150
#        14790
#        25153
#        36647
#        54475
#        75857
#        87070
#        103480
#        122155
#        135105
#        149028
#        163446
#        172605
#        188336
#
# Disc length: 2709 seconds
#
# Revision: 2
# Processed by: cddbd v1.4PL0 Copyright (c) Steve Scherf et al.
# Submitted via: ExactAudioCopy v0.90b4
#
DISCID=b60a930e
DTITLE=Beatlesmania - Beatlesmania
DYEAR=1900
DGENRE=Rock
TTITLE0=All You Need Is Love
TTITLE1=Help
TTITLE2=A Hard Day's Night
TTITLE3=Come Together
TTITLE4=Hey Jude
TTITLE5=And I Love Her
TTITLE6=Get Back
TTITLE7=Let It Be
TTITLE8=Love Me Do
TTITLE9=Michelle
TTITLE10=Ticket To Ride
TTITLE11=Yesterday
TTITLE12=The Long And Winding Road
TTITLE13=Imagine
EXTD=BEATLES
EXTT0=
EXTT1=
EXTT2=
EXTT3=
EXTT4=
EXTT5=
EXTT6=
EXTT7=
EXTT8=
EXTT9=
EXTT10=
EXTT11=
EXTT12=
EXTT13=
PLAYORDER=
